<svg version="1.1" id="Layer_1" xmlns="http://www.w3.org/2000/svg" xmlns:xlink="http://www.w3.org/1999/xlink" x="0px" y="0px"
	 width="100%" viewBox="0 0 400 306" enable-background="new 0 0 400 306" xml:space="preserve">
<path fill="#FFFFFF" opacity="1.000000" stroke="none" 
	d="
M207.000000,307.000000 
	C138.000015,307.000000 69.500023,307.000000 1.000028,307.000000 
	C1.000018,205.000031 1.000018,103.000061 1.000009,1.000069 
	C134.333282,1.000046 267.666565,1.000046 400.999878,1.000023 
	C400.999939,102.999931 400.999939,204.999863 400.999969,306.999878 
	C336.500000,307.000000 272.000000,307.000000 207.000000,307.000000 
M272.126526,102.003143 
	C269.753235,102.042595 267.379974,102.082039 264.112976,101.997658 
	C261.408661,102.040367 258.704376,102.083076 255.099136,102.007378 
	C252.071228,102.041695 249.043320,102.076012 245.091782,101.985626 
	C240.735107,101.971397 236.378418,101.957176 231.418106,101.385345 
	C227.621841,101.392174 223.825592,101.398994 219.122040,101.196869 
	C215.090179,101.247421 211.058334,101.297974 206.125137,101.157990 
	C203.074081,101.229897 200.023010,101.301804 196.099335,101.194290 
	C193.726471,101.267944 191.353622,101.341599 188.164032,101.226830 
	C185.774231,101.527245 183.384445,101.827667 180.092026,102.018723 
	C177.059067,102.054688 174.026108,102.090645 170.090836,102.016060 
	C167.057281,102.054367 164.023712,102.092674 160.100250,102.020126 
	C148.785889,101.882874 148.785950,101.882874 148.785690,112.983734 
	C148.785065,140.384720 148.783936,167.785721 148.783920,195.186707 
	C148.783920,207.433716 148.842041,207.488190 161.895035,206.967804 
	C165.259476,206.919785 168.623901,206.871780 172.897354,206.964935 
	C176.261292,206.919968 179.625244,206.875015 183.898941,206.966263 
	C187.263641,206.921082 190.628342,206.875900 194.894897,206.963058 
	C197.933502,206.919373 200.972092,206.875687 204.935837,206.954605 
	C209.960083,206.913483 214.984314,206.872360 220.900848,206.954865 
	C223.602020,206.912567 226.303207,206.870255 229.892517,206.972122 
	C232.598557,206.924393 235.304581,206.876678 238.891388,206.954727 
	C241.264008,206.908875 243.636642,206.863037 246.908661,206.947723 
	C249.939484,206.907242 252.970306,206.866760 256.893646,206.963043 
	C259.599304,206.918457 262.304962,206.873871 265.898132,206.970261 
	C268.601532,206.920639 271.304932,206.871017 274.856873,206.954742 
	C277.590424,206.846542 280.324005,206.738342 283.791687,206.800217 
	C285.863525,206.804199 287.935333,206.808182 290.852997,206.956284 
	C292.564270,206.903931 294.275543,206.851593 296.703400,206.780243 
	C297.782043,204.711945 299.786957,202.649628 299.800385,200.574448 
	C300.000214,169.653763 299.965637,138.731293 299.852844,107.809723 
	C299.846954,106.206345 298.642365,104.607338 298.000000,103.000000 
	C298.000000,103.000000 297.993622,103.004189 297.765472,102.511436 
	C296.847412,102.350647 295.929382,102.189850 294.176178,101.984558 
	C292.785614,102.034187 291.395081,102.083824 289.111938,102.003136 
	C286.410400,102.047432 283.708893,102.091728 280.126251,102.004654 
	C277.753418,102.046928 275.380585,102.089203 272.126526,102.003143 
M128.818176,125.054047 
	C135.035477,124.913589 138.299042,121.846138 136.712692,117.439194 
	C135.192184,113.215149 131.588577,113.424774 127.111572,113.659691 
	C123.748856,113.705452 120.386139,113.751213 116.105133,113.643852 
	C113.284981,113.642097 110.458817,113.523773 107.646255,113.669006 
	C104.358482,113.838783 102.326492,115.733421 102.200600,118.998451 
	C102.065643,122.498596 104.109032,124.688477 107.552383,124.972488 
	C110.675537,125.230072 113.843475,124.944649 117.897102,125.060104 
	C121.261826,125.006638 124.626556,124.953171 128.818176,125.054047 
M126.102753,136.882507 
	C123.805771,136.879196 121.186707,136.180847 119.297005,137.056488 
	C117.152931,138.050018 114.665436,140.193588 114.117172,142.302505 
	C113.266357,145.575272 115.625824,147.888672 119.123375,148.159805 
	C121.725792,148.361572 124.362000,148.127365 127.614693,148.400345 
	C128.918472,148.395493 130.244095,148.541489 131.521790,148.356491 
	C134.874832,147.870972 136.965515,145.940338 136.922256,142.462723 
	C136.878754,138.965622 134.669373,137.120041 131.341843,136.740906 
	C129.925446,136.579529 128.452240,136.916702 126.102753,136.882507 
z"/>
<path fill="#609DEA" opacity="1.000000" stroke="none" 
	d="
M160.986694,206.822433 
	C148.842041,207.488190 148.783920,207.433716 148.783920,195.186707 
	C148.783936,167.785721 148.785065,140.384720 148.785690,112.983734 
	C148.785950,101.882874 148.785889,101.882874 160.549011,102.534676 
	C161.059128,106.200493 161.120468,109.351768 160.963165,112.703644 
	C160.845718,114.230743 160.946899,115.557236 161.033234,117.352448 
	C161.011627,121.534920 161.004883,125.248665 160.699860,129.257629 
	C160.326584,151.142776 160.245224,172.732666 160.211151,194.322647 
	C160.210251,194.893570 160.723495,195.465302 160.998077,196.490082 
	C160.995041,200.236481 160.990875,203.529465 160.986694,206.822433 
z"/>
<path fill="#EA5571" opacity="1.000000" stroke="none" 
	d="
M290.004517,102.133453 
	C291.395081,102.083824 292.785614,102.034187 294.803497,102.260803 
	C296.285095,102.692764 297.139343,102.848480 297.993622,103.004189 
	C297.993622,103.004189 298.000000,103.000000 298.000397,103.471329 
	C298.003784,134.901840 298.068054,165.861313 297.921051,196.819778 
	C297.905243,200.149261 296.661163,203.472916 295.986816,206.799255 
	C294.275543,206.851593 292.564270,206.903931 290.428162,206.439758 
	C290.002167,204.129745 290.285339,202.275269 289.917572,200.560394 
	C289.569702,198.938507 288.538208,197.463272 287.914093,195.470490 
	C287.980835,173.030334 287.940887,151.043198 288.211914,128.773651 
	C288.305908,124.308800 288.088898,120.126396 287.954590,115.587379 
	C288.017395,114.504608 287.997528,113.778450 287.979614,112.712173 
	C287.975098,111.918816 287.968628,111.465576 288.350830,110.928345 
	C289.161194,107.940720 289.582855,105.037086 290.004517,102.133453 
z"/>
<path fill="#F06277" opacity="1.000000" stroke="none" 
	d="
M296.345123,206.789749 
	C296.661163,203.472916 297.905243,200.149261 297.921051,196.819778 
	C298.068054,165.861313 298.003784,134.901840 297.998352,103.474472 
	C298.642365,104.607338 299.846954,106.206345 299.852844,107.809723 
	C299.965637,138.731293 300.000214,169.653763 299.800385,200.574448 
	C299.786957,202.649628 297.782043,204.711945 296.345123,206.789749 
z"/>
<path fill="#AD7CDA" opacity="1.000000" stroke="none" 
	d="
M220.008575,206.831238 
	C214.984314,206.872360 209.960083,206.913483 204.470932,206.449646 
	C204.007111,202.639404 204.008179,199.334137 204.472626,195.975281 
	C209.957916,195.958679 214.979813,195.995667 220.000793,196.486542 
	C220.002762,200.237335 220.005661,203.534286 220.008575,206.831238 
z"/>
<path fill="#1FBCE9" opacity="1.000000" stroke="none" 
	d="
M116.991669,124.898636 
	C113.843475,124.944649 110.675537,125.230072 107.552383,124.972488 
	C104.109032,124.688477 102.065643,122.498596 102.200600,118.998451 
	C102.326492,115.733421 104.358482,113.838783 107.646255,113.669006 
	C110.458817,113.523773 113.284981,113.642097 116.565460,114.139236 
	C117.014420,118.055954 117.003044,121.477295 116.991669,124.898636 
z"/>
<path fill="#B380D9" opacity="1.000000" stroke="none" 
	d="
M207.026474,101.348526 
	C211.058334,101.297974 215.090179,101.247421 219.566940,101.721649 
	C220.015686,105.710693 220.019531,109.174965 219.567261,112.739029 
	C215.079102,112.789406 211.047058,112.739990 207.009827,112.252151 
	C207.011917,108.325325 207.019196,104.836929 207.026474,101.348526 
z"/>
<path fill="#C877B9" opacity="1.000000" stroke="none" 
	d="
M232.021744,101.942947 
	C236.378418,101.957176 240.735107,101.971397 245.533661,102.461853 
	C245.621033,106.121140 245.266510,109.304207 244.531891,112.582840 
	C240.100021,112.664787 236.048233,112.651169 231.998917,112.201416 
	C232.008163,108.491173 232.014954,105.217064 232.021744,101.942947 
z"/>
<path fill="#B773C8" opacity="1.000000" stroke="none" 
	d="
M231.719925,101.664146 
	C232.014954,105.217064 232.008163,108.491173 231.545410,112.290085 
	C227.400772,112.756340 223.712067,112.697792 220.023376,112.639236 
	C220.019531,109.174965 220.015686,105.710693 220.020584,101.826118 
	C223.825592,101.398994 227.621841,101.392174 231.719925,101.664146 
z"/>
<path fill="#30B3E9" opacity="1.000000" stroke="none" 
	d="
M126.983162,148.087341 
	C124.362000,148.127365 121.725792,148.361572 119.123375,148.159805 
	C115.625824,147.888672 113.266357,145.575272 114.117172,142.302505 
	C114.665436,140.193588 117.152931,138.050018 119.297005,137.056488 
	C121.186707,136.180847 123.805771,136.879196 126.552780,137.412415 
	C126.996254,141.323990 126.989708,144.705658 126.983162,148.087341 
z"/>
<path fill="#7196EB" opacity="1.000000" stroke="none" 
	d="
M161.440857,206.895111 
	C160.990875,203.529465 160.995041,200.236481 161.452728,196.425232 
	C165.269577,195.948822 168.632935,195.990677 171.997314,196.486420 
	C171.995010,200.234787 171.991684,203.529266 171.988342,206.823761 
	C168.623901,206.871780 165.259476,206.919785 161.440857,206.895111 
z"/>
<path fill="#8091EB" opacity="1.000000" stroke="none" 
	d="
M172.442856,206.894348 
	C171.991684,203.529266 171.995010,200.234787 172.452240,196.422729 
	C176.269547,195.943420 179.632980,195.981689 182.997253,196.474792 
	C182.995148,200.229767 182.992157,203.529907 182.989182,206.830048 
	C179.625244,206.875015 176.261292,206.919968 172.442856,206.894348 
z"/>
<path fill="#9287EB" opacity="1.000000" stroke="none" 
	d="
M183.444061,206.898163 
	C182.992157,203.529907 182.995148,200.229767 183.452789,196.416107 
	C187.271790,195.945801 190.636124,195.989014 194.000885,196.486053 
	C193.998550,200.236832 193.995789,203.533783 193.993042,206.830719 
	C190.628342,206.875900 187.263641,206.921082 183.444061,206.898163 
z"/>
<path fill="#AB8BEA" opacity="1.000000" stroke="none" 
	d="
M206.575806,101.253258 
	C207.019196,104.836929 207.011917,108.325325 206.577179,112.337936 
	C203.121841,112.720474 200.093994,112.578819 197.050781,111.956329 
	C197.014267,108.108231 196.993103,104.740974 196.971954,101.373711 
	C200.023010,101.301804 203.074081,101.229897 206.575806,101.253258 
z"/>
<path fill="#30B3E9" opacity="1.000000" stroke="none" 
	d="
M117.444382,124.979370 
	C117.003044,121.477295 117.014420,118.055954 117.024612,114.215790 
	C120.386139,113.751213 123.748856,113.705452 127.561371,114.204163 
	C128.004547,118.132324 127.997910,121.516022 127.991280,124.899712 
	C124.626556,124.953171 121.261826,125.006638 117.444382,124.979370 
z"/>
<path fill="#8091EB" opacity="1.000000" stroke="none" 
	d="
M170.993149,102.126602 
	C174.026108,102.090645 177.059067,102.054688 180.545258,102.506653 
	C181.662079,106.284172 182.325653,109.573776 182.540359,112.918800 
	C178.403824,112.799736 174.716125,112.625244 171.021378,111.970932 
	C171.007263,108.369606 171.000198,105.248100 170.993149,102.126602 
z"/>
<path fill="#3FAFEA" opacity="1.000000" stroke="none" 
	d="
M127.298927,148.243835 
	C126.989708,144.705658 126.996254,141.323990 127.003830,137.484818 
	C128.452240,136.916702 129.925446,136.579529 131.341843,136.740906 
	C134.669373,137.120041 136.878754,138.965622 136.922256,142.462723 
	C136.965515,145.940338 134.874832,147.870972 131.521790,148.356491 
	C130.244095,148.541489 128.918472,148.395493 127.298927,148.243835 
z"/>
<path fill="#C868AA" opacity="1.000000" stroke="none" 
	d="
M256.001129,206.826294 
	C252.970306,206.866760 249.939484,206.907242 246.456223,206.439423 
	C246.003067,202.634201 246.002335,199.337296 246.452362,195.978973 
	C249.934601,195.955154 252.966049,195.992767 255.997711,196.484207 
	C255.998978,200.234131 256.000061,203.530212 256.001129,206.826294 
z"/>
<path fill="#A580E8" opacity="1.000000" stroke="none" 
	d="
M194.443970,206.896881 
	C193.995789,203.533783 193.998550,200.236832 194.452271,196.429230 
	C197.938568,195.955322 200.973907,195.992096 204.009247,196.028870 
	C204.008179,199.334137 204.007111,202.639404 204.008362,206.388336 
	C200.972092,206.875687 197.933502,206.919373 194.443970,206.896881 
z"/>
<path fill="#C868AA" opacity="1.000000" stroke="none" 
	d="
M244.911987,112.487274 
	C245.266510,109.304207 245.621033,106.121140 245.995483,102.524200 
	C249.043320,102.076012 252.071228,102.041695 255.539520,102.459976 
	C255.978210,106.093674 255.976517,109.274780 255.519211,112.480377 
	C251.679733,112.499001 248.295853,112.493134 244.911987,112.487274 
z"/>
<path fill="#D1679F" opacity="1.000000" stroke="none" 
	d="
M255.974823,112.455887 
	C255.976517,109.274780 255.978210,106.093674 255.989990,102.519180 
	C258.704376,102.083076 261.408661,102.040367 264.556458,102.500458 
	C265.003693,106.204536 265.007416,109.405807 264.600159,112.705498 
	C261.451080,112.687904 258.712952,112.571899 255.974823,112.455887 
z"/>
<path fill="#7196EB" opacity="1.000000" stroke="none" 
	d="
M170.541992,102.071335 
	C171.000198,105.248100 171.007263,108.369606 170.567551,111.979797 
	C167.141129,112.480011 164.161469,112.491524 161.181808,112.503036 
	C161.120468,109.351768 161.059128,106.200493 160.993973,102.590103 
	C164.023712,102.092674 167.057281,102.054367 170.541992,102.071335 
z"/>
<path fill="#D96292" opacity="1.000000" stroke="none" 
	d="
M274.008331,206.821411 
	C271.304932,206.871017 268.601532,206.920639 265.450623,206.456253 
	C265.002167,202.637100 265.001282,199.331970 265.447083,195.963470 
	C268.596069,195.944885 271.298370,195.989639 273.999939,196.487549 
	C274.002228,200.234268 274.005280,203.527832 274.008331,206.821411 
z"/>
<path fill="#D1679F" opacity="1.000000" stroke="none" 
	d="
M265.000397,196.026825 
	C265.001282,199.331970 265.002167,202.637100 265.006836,206.385773 
	C262.304962,206.873871 259.599304,206.918457 256.447388,206.894669 
	C256.000061,203.530212 255.998978,200.234131 256.444580,196.420258 
	C259.594330,195.943924 262.297363,195.985367 265.000397,196.026825 
z"/>
<path fill="#C173BD" opacity="1.000000" stroke="none" 
	d="
M238.010620,206.828964 
	C235.304581,206.876678 232.598557,206.924393 229.447769,206.457047 
	C229.003784,202.639191 229.004532,199.336411 229.451797,195.974548 
	C232.600021,195.953201 235.301743,195.990936 238.002289,196.482605 
	C238.004288,200.234009 238.007446,203.531479 238.010620,206.828964 
z"/>
<path fill="#B773C8" opacity="1.000000" stroke="none" 
	d="
M229.005295,196.033630 
	C229.004532,199.336411 229.003784,202.639191 229.003693,206.384949 
	C226.303207,206.870255 223.602020,206.912567 220.454712,206.893036 
	C220.005661,203.534286 220.002762,200.237335 220.448334,196.433243 
	C223.599640,195.961929 226.302475,195.997787 229.005295,196.033630 
z"/>
<path fill="#8E8BEB" opacity="1.000000" stroke="none" 
	d="
M182.989212,112.863373 
	C182.325653,109.573776 181.662079,106.284172 180.996582,102.561333 
	C183.384445,101.827667 185.774231,101.527245 188.581375,101.713242 
	C189.341446,105.603416 189.684174,109.007179 189.662933,112.534897 
	C187.195709,112.727020 185.092468,112.795197 182.989212,112.863373 
z"/>
<path fill="#DD5C87" opacity="1.000000" stroke="none" 
	d="
M274.432617,206.888062 
	C274.005280,203.527832 274.002228,200.234268 274.446075,196.419952 
	C277.594849,195.945602 280.296722,195.992035 282.998291,196.498688 
	C283.017822,200.182663 283.037689,203.406403 283.057556,206.630142 
	C280.324005,206.738342 277.590424,206.846542 274.432617,206.888062 
z"/>
<path fill="#E3577B" opacity="1.000000" stroke="none" 
	d="
M289.558228,102.068298 
	C289.582855,105.037086 289.161194,107.940720 288.010620,110.934357 
	C286.516876,111.645645 285.752014,112.266914 284.572723,112.937515 
	C282.776184,112.905464 281.394104,112.824074 280.075195,112.354385 
	C280.428040,108.689407 280.717712,105.412720 281.007385,102.136024 
	C283.708893,102.091728 286.410400,102.047432 289.558228,102.068298 
z"/>
<path fill="#3FAFEA" opacity="1.000000" stroke="none" 
	d="
M128.404724,124.976883 
	C127.997910,121.516022 128.004547,118.132324 128.016266,114.275406 
	C131.588577,113.424774 135.192184,113.215149 136.712692,117.439194 
	C138.299042,121.846138 135.035477,124.913589 128.404724,124.976883 
z"/>
<path fill="#D96292" opacity="1.000000" stroke="none" 
	d="
M265.011108,112.607079 
	C265.007416,109.405807 265.003693,106.204536 265.003326,102.562378 
	C267.379974,102.082039 269.753235,102.042595 272.563965,102.507324 
	C273.004578,106.204971 273.007751,109.398422 272.575562,112.692894 
	C269.763855,112.731628 267.387482,112.669350 265.011108,112.607079 
z"/>
<path fill="#C36DB4" opacity="1.000000" stroke="none" 
	d="
M238.451004,206.891846 
	C238.007446,203.531479 238.004288,200.234009 238.443573,196.426193 
	C241.257889,195.957367 243.629745,195.998871 246.001602,196.040375 
	C246.002335,199.337296 246.003067,202.634201 246.006531,206.374161 
	C243.636642,206.863037 241.264008,206.908875 238.451004,206.891846 
z"/>
<path fill="#DD5C87" opacity="1.000000" stroke="none" 
	d="
M273.010895,112.591881 
	C273.007751,109.398422 273.004578,106.204971 273.004578,102.571487 
	C275.380585,102.089203 277.753418,102.046928 280.566833,102.070343 
	C280.717712,105.412720 280.428040,108.689407 279.637756,112.393433 
	C277.095093,112.744476 275.052979,112.668182 273.010895,112.591881 
z"/>
<path fill="#9A86EB" opacity="1.000000" stroke="none" 
	d="
M190.026901,112.410942 
	C189.684174,109.007179 189.341446,105.603416 188.989746,101.807449 
	C191.353622,101.341599 193.726471,101.267944 196.535645,101.283997 
	C196.993103,104.740974 197.014267,108.108231 196.607056,111.947037 
	C194.128082,112.416039 192.077499,112.413490 190.026901,112.410942 
z"/>
<path fill="#E3577B" opacity="1.000000" stroke="none" 
	d="
M283.424622,206.715179 
	C283.037689,203.406403 283.017822,200.182663 283.395325,196.428223 
	C285.130951,195.906174 286.469177,195.914856 287.807404,195.923523 
	C288.538208,197.463272 289.569702,198.938507 289.917572,200.560394 
	C290.285339,202.275269 290.002167,204.129745 290.005249,206.367706 
	C287.935333,206.808182 285.863525,206.804199 283.424622,206.715179 
z"/>
<path fill="#F06277" opacity="1.000000" stroke="none" 
	d="
M297.879547,102.757812 
	C297.139343,102.848480 296.285095,102.692764 295.221069,102.283051 
	C295.929382,102.189850 296.847412,102.350647 297.879547,102.757812 
z"/>
<path fill="#FCFCFD" opacity="1.000000" stroke="none" 
	d="
M287.914093,195.470490 
	C286.469177,195.914856 285.130951,195.906174 283.395660,195.967987 
	C280.296722,195.992035 277.594849,195.945602 274.446838,195.966797 
	C271.298370,195.989639 268.596069,195.944885 265.447083,195.963470 
	C262.297363,195.985367 259.594330,195.943924 256.444397,195.966431 
	C252.966049,195.992767 249.934601,195.955154 246.452362,195.978973 
	C243.629745,195.998871 241.257889,195.957367 238.444748,195.972275 
	C235.301743,195.990936 232.600021,195.953201 229.451797,195.974548 
	C226.302475,195.997787 223.599640,195.961929 220.449265,195.979370 
	C214.979813,195.995667 209.957916,195.958679 204.472641,195.975281 
	C200.973907,195.992096 197.938568,195.955322 194.451843,195.975388 
	C190.636124,195.989014 187.271790,195.945801 183.451920,195.961273 
	C179.632980,195.981689 176.269547,195.943420 172.451202,195.968842 
	C168.632935,195.990677 165.269577,195.948822 161.451599,195.971817 
	C160.723495,195.465302 160.210251,194.893570 160.211151,194.322647 
	C160.245224,172.732666 160.326584,151.142776 161.002319,129.429123 
	C164.334717,130.584564 167.066376,131.863754 170.037811,133.395996 
	C173.502045,135.170517 176.726517,136.691986 180.172897,138.458282 
	C182.869232,139.844360 185.343628,140.985626 188.054657,142.377594 
	C190.802567,143.792938 193.313828,144.957550 196.062561,146.376328 
	C199.867752,148.366882 203.435516,150.103287 207.297989,152.035919 
	C211.025787,153.911896 214.458862,155.591644 218.133728,157.528748 
	C222.775116,160.598618 227.001358,160.626801 231.356171,156.950012 
	C235.474792,154.929977 239.237228,152.959946 243.354614,150.941345 
	C247.181473,149.072372 250.653381,147.251953 254.476440,145.309143 
	C257.927246,143.609741 261.026886,142.032715 264.480957,140.339722 
	C268.026093,138.581284 271.216736,136.938797 274.740967,135.200378 
	C277.727173,133.761002 280.379791,132.417572 283.349670,130.965057 
	C285.078278,130.256012 286.489594,129.656052 287.900940,129.056076 
	C287.940887,151.043198 287.980835,173.030334 287.914093,195.470490 
M265.877197,183.193497 
	C267.535217,183.195847 269.195007,183.249008 270.850861,183.190109 
	C274.470856,183.061340 276.525299,180.842438 276.557098,177.536438 
	C276.588989,174.229492 274.583832,171.948624 270.952881,171.823090 
	C268.969543,171.754517 266.979401,171.883392 264.110199,171.793533 
	C262.447540,171.798019 260.784119,171.771973 259.122375,171.813263 
	C255.472412,171.903961 253.417831,174.124573 253.387817,177.437912 
	C253.357788,180.751083 255.378296,183.039352 259.017059,183.169418 
	C261.005249,183.240494 263.000519,183.113831 265.877197,183.193497 
M167.028702,181.840302 
	C167.111633,181.020966 167.142792,180.192459 167.286118,179.383820 
	C168.066467,174.981400 169.064728,170.604233 169.538177,166.170319 
	C169.655502,165.071594 168.102295,163.794479 167.316971,162.599365 
	C166.938797,162.840256 166.560608,163.081131 166.182434,163.322021 
	C166.182434,173.085861 166.182434,182.849701 166.182434,192.613541 
	C166.465347,192.617035 166.748276,192.620544 167.031189,192.624039 
	C167.031189,189.338028 167.031189,186.052032 167.028702,181.840302 
z"/>
<path fill="#FEFEFE" opacity="1.000000" stroke="none" 
	d="
M189.662933,112.534897 
	C192.077499,112.413490 194.128082,112.416039 196.622406,112.427872 
	C200.093994,112.578819 203.121841,112.720474 206.582367,112.776352 
	C211.047058,112.739990 215.079102,112.789406 219.567261,112.739029 
	C223.712067,112.697792 227.400772,112.756340 231.542969,112.726219 
	C236.048233,112.651169 240.100021,112.664787 244.531891,112.582840 
	C248.295853,112.493134 251.679733,112.499001 255.519226,112.480377 
	C258.712952,112.571899 261.451080,112.687904 264.600159,112.705498 
	C267.387482,112.669350 269.763855,112.731628 272.575562,112.692894 
	C275.052979,112.668182 277.095093,112.744476 279.574585,112.781731 
	C281.394104,112.824074 282.776184,112.905464 284.941956,113.005554 
	C286.476318,113.033592 287.226959,113.042938 287.977631,113.052284 
	C287.997528,113.778450 288.017395,114.504608 287.622162,115.645554 
	C285.467041,117.027939 283.727051,117.995537 281.647827,119.075195 
	C278.210449,120.843834 275.112244,122.500420 271.660126,124.153282 
	C268.497070,125.647629 265.687988,127.145699 262.518707,128.726410 
	C259.084991,130.481903 256.011444,132.154755 252.569061,133.880539 
	C248.801758,135.627899 245.403275,137.322327 241.647522,139.057190 
	C237.530746,141.107880 233.771240,143.118164 229.641495,145.133881 
	C225.859283,147.490387 222.434341,147.347916 218.705475,144.990189 
	C214.983353,143.162796 211.554733,141.537933 207.893982,139.655884 
	C204.121353,137.889206 200.580811,136.379715 196.894745,134.567932 
	C194.163681,132.908905 191.578156,131.552200 188.701904,130.002472 
	C185.936981,128.604187 183.462784,127.398888 180.695282,125.996643 
	C177.626190,124.488327 174.850449,123.176956 171.844879,121.611626 
	C168.092728,119.866348 164.570419,118.375038 161.048096,116.883720 
	C160.946899,115.557236 160.845718,114.230743 160.963165,112.703644 
	C164.161469,112.491524 167.141129,112.480011 170.574615,112.459625 
	C174.716125,112.625244 178.403824,112.799736 182.540359,112.918800 
	C185.092468,112.795197 187.195709,112.727020 189.662933,112.534897 
z"/>
<path fill="#7196EB" opacity="1.000000" stroke="none" 
	d="
M161.033234,117.352448 
	C164.570419,118.375038 168.092728,119.866348 171.674728,121.996338 
	C171.088943,126.137665 170.443481,129.640305 169.798019,133.142944 
	C167.066376,131.863754 164.334717,130.584564 161.300598,129.133881 
	C161.004883,125.248665 161.011627,121.534920 161.033234,117.352448 
z"/>
<path fill="#E86988" opacity="1.000000" stroke="none" 
	d="
M281.987030,118.963142 
	C283.727051,117.995537 285.467041,117.027939 287.539490,116.002159 
	C288.088898,120.126396 288.305908,124.308800 288.211914,128.773651 
	C286.489594,129.656052 285.078278,130.256012 283.186951,130.579163 
	C282.467010,126.522614 282.227020,122.742882 281.987030,118.963142 
z"/>
<path fill="#E86988" opacity="1.000000" stroke="none" 
	d="
M287.979614,112.712173 
	C287.226959,113.042938 286.476318,113.033592 285.356415,112.956215 
	C285.752014,112.266914 286.516876,111.645645 287.621948,111.018356 
	C287.968628,111.465576 287.975098,111.918816 287.979614,112.712173 
z"/>
<path fill="#B878CC" opacity="1.000000" stroke="none" 
	d="
M218.998932,145.192719 
	C222.434341,147.347916 225.859283,147.490387 229.695862,145.533325 
	C230.413635,149.618195 230.706818,153.309097 231.000000,157.000000 
	C227.001358,160.626801 222.775116,160.598618 218.206207,157.097534 
	C218.357605,152.670197 218.678268,148.931458 218.998932,145.192719 
z"/>
<path fill="#C173BD" opacity="1.000000" stroke="none" 
	d="
M231.356171,156.950012 
	C230.706818,153.309097 230.413635,149.618195 230.066101,145.527863 
	C233.771240,143.118164 237.530746,141.107880 241.655151,139.473541 
	C242.346588,143.562958 242.673126,147.276443 242.999649,150.989914 
	C239.237228,152.959946 235.474792,154.929977 231.356171,156.950012 
z"/>
<path fill="#AD7CDA" opacity="1.000000" stroke="none" 
	d="
M218.705460,144.990189 
	C218.678268,148.931458 218.357605,152.670197 217.964432,156.840164 
	C214.458862,155.591644 211.025787,153.911896 207.296936,151.591980 
	C207.376129,147.272217 207.751114,143.592651 208.126099,139.913071 
	C211.554733,141.537933 214.983353,143.162796 218.705460,144.990189 
z"/>
<path fill="#C96FAF" opacity="1.000000" stroke="none" 
	d="
M243.354614,150.941345 
	C242.673126,147.276443 242.346588,143.562958 242.012421,139.433136 
	C245.403275,137.322327 248.801758,135.627899 252.587189,134.342239 
	C253.357834,138.311188 253.741562,141.871353 254.125275,145.431519 
	C250.653381,147.251953 247.181473,149.072372 243.354614,150.941345 
z"/>
<path fill="#D1679F" opacity="1.000000" stroke="none" 
	d="
M254.476440,145.309143 
	C253.741562,141.871353 253.357834,138.311188 252.955994,134.289322 
	C256.011444,132.154755 259.084991,130.481903 262.560303,129.175049 
	C263.350250,133.179260 263.738373,136.817474 264.126526,140.455688 
	C261.026886,142.032715 257.927246,143.609741 254.476440,145.309143 
z"/>
<path fill="#A580E8" opacity="1.000000" stroke="none" 
	d="
M207.893982,139.655884 
	C207.751114,143.592651 207.376129,147.272217 207.002213,151.395737 
	C203.435516,150.103287 199.867752,148.366882 196.384842,146.093262 
	C196.659882,141.994095 196.850082,138.432159 197.040283,134.870224 
	C200.580811,136.379715 204.121353,137.889206 207.893982,139.655884 
z"/>
<path fill="#D96292" opacity="1.000000" stroke="none" 
	d="
M264.480957,140.339722 
	C263.738373,136.817474 263.350250,133.179260 262.920471,129.092407 
	C265.687988,127.145699 268.497070,125.647629 271.715332,124.548508 
	C272.885498,128.397079 273.646454,131.846695 274.407410,135.296326 
	C271.216736,136.938797 268.026093,138.581284 264.480957,140.339722 
z"/>
<path fill="#DD5C87" opacity="1.000000" stroke="none" 
	d="
M274.740967,135.200378 
	C273.646454,131.846695 272.885498,128.397079 272.069275,124.552231 
	C275.112244,122.500420 278.210449,120.843834 281.647827,119.075195 
	C282.227020,122.742882 282.467010,126.522614 282.869720,130.688248 
	C280.379791,132.417572 277.727173,133.761002 274.740967,135.200378 
z"/>
<path fill="#8091EB" opacity="1.000000" stroke="none" 
	d="
M170.037811,133.395996 
	C170.443481,129.640305 171.088943,126.137665 171.904541,122.250305 
	C174.850449,123.176956 177.626190,124.488327 180.686310,126.398926 
	C180.630768,130.736603 180.290863,134.475021 179.950974,138.213455 
	C176.726517,136.691986 173.502045,135.170517 170.037811,133.395996 
z"/>
<path fill="#D1679F" opacity="1.000000" stroke="none" 
	d="
M264.992584,183.076355 
	C263.000519,183.113831 261.005249,183.240494 259.017059,183.169418 
	C255.378296,183.039352 253.357788,180.751083 253.387817,177.437912 
	C253.417831,174.124573 255.472412,171.903961 259.122375,171.813263 
	C260.784119,171.771973 262.447540,171.798019 264.552582,172.323975 
	C264.994171,176.261734 264.993378,179.669052 264.992584,183.076355 
z"/>
<path fill="#D96292" opacity="1.000000" stroke="none" 
	d="
M265.434875,183.134918 
	C264.993378,179.669052 264.994171,176.261734 264.993652,172.388824 
	C266.979401,171.883392 268.969543,171.754517 270.952881,171.823090 
	C274.583832,171.948624 276.588989,174.229492 276.557098,177.536438 
	C276.525299,180.842438 274.470856,183.061340 270.850861,183.190109 
	C269.195007,183.249008 267.535217,183.195847 265.434875,183.134918 
z"/>
<path fill="#8E8BEB" opacity="1.000000" stroke="none" 
	d="
M180.172897,138.458282 
	C180.290863,134.475021 180.630768,130.736603 180.979630,126.595879 
	C183.462784,127.398888 185.936981,128.604187 188.704178,130.443970 
	C188.604141,134.761276 188.211090,138.444077 187.818039,142.126892 
	C185.343628,140.985626 182.869232,139.844360 180.172897,138.458282 
z"/>
<path fill="#9A86EB" opacity="1.000000" stroke="none" 
	d="
M188.054657,142.377594 
	C188.211090,138.444077 188.604141,134.761276 188.994904,130.636963 
	C191.578156,131.552200 194.163681,132.908905 196.894745,134.567932 
	C196.850082,138.432159 196.659882,141.994095 196.147400,145.839096 
	C193.313828,144.957550 190.802567,143.792938 188.054657,142.377594 
z"/>
<path fill="#191919" opacity="1.000000" stroke="none" 
	d="
M167.029938,182.303162 
	C167.031189,186.052032 167.031189,189.338028 167.031189,192.624039 
	C166.748276,192.620544 166.465347,192.617035 166.182434,192.613541 
	C166.182434,182.849701 166.182434,173.085861 166.182434,163.322021 
	C166.560608,163.081131 166.938797,162.840256 167.316971,162.599365 
	C168.102295,163.794479 169.655502,165.071594 169.538177,166.170319 
	C169.064728,170.604233 168.066467,174.981400 167.286118,179.383820 
	C167.142792,180.192459 167.111633,181.020966 167.029938,182.303162 
z"/>
</svg>